:SAMPLES-PER-SECOND 30
:FULLY-SPECIFIED
:DEGREES
303
root  13.15211048 38.26311066 -3.394955537 -4.064949989 -55.32139969 -6.69919014
lfemur  -21.70220184 -1.001070023 0.3891719878
ltibia  -1.491570742e-006 -8.364404493e-007 56.28490448
lfoot  5.521815751e-007 -9.999580383 7.143149376
ltoes  -4.250644065 -19.5611806 -102.515957
rfemur  0.2804273665 5.98099041 15.19369888
rtibia  -8.727266732e-007 2.533748784e-007 60.07509995
rfoot  -2.316020982e-006 -13.53449917 -3.196080446
rtoes  5.373923086 19.29304026 -105.8922705
lowerback  7.207960129 3.661089897 -1.679990053
upperback  2.843869925 4.647140026 -2.673609972
thorax  -1.003679991 2.297559977 -2.179029942
rclavicle  0 -9.442270133e-015 7.951389973e-016
rhumerus  -12.87380028 19.46430016 -73.93969727
rradius  -7.782816058e-012 0.001642658608 137.9490051
rwrist  0.002739921212 0.003270594636 2.734319925
rthumb  -92.93752616 -24.25625642 -97.11982154
rhand  -7.920061211e-032 -33.2840004 9.303460121
rfingers  -90 -7.125020027 -90
lclavicle  0 -9.442270133e-015 7.951389973e-016
lhumerus  -3.282480001 -17.46170044 76.7798996
lradius  1.032090038e-011 0.005718162749 144.2590027
lwrist  1.816137865e-011 1.409039812e-011 3.139719963
lthumb  89.89689403 5.08795885 91.16245106
lhand  -1.496451383e-031 -27.76390076 20.11240005
lfingers  90 7.125020027 -90
lowerneck  1.875 7.395540237 -3.957119942
upperneck  18.77799988 8.417169571 10.0447998
head  4.665579796 4.328780174 4.018670082
304
root  13.1262216 38.15866606 -3.464600045 -3.436019897 -56.17440033 -6.720689774
lfemur  -22.5446949 -0.06230661273 0.8865941167
ltibia  -1.491570742e-006 -8.364404493e-007 57.40309143
lfoot  5.521815751e-007 -10.1537981 6.159660339
ltoes  -4.250644065 -19.5611806 -102.515957
rfemur  0.9512802362 5.823520184 15.66619968
rtibia  -8.727266732e-007 2.533748784e-007 58.93739319
rfoot  -2.316020982e-006 -15.4003973 -6.546988487
rtoes  5.373923086 19.29304026 -105.8922705
lowerback  7.097310066 3.799489975 -1.570070028
upperback  2.585489988 4.841599941 -2.584589958
thorax  -1.203130007 2.396610022 -2.167030096
rclavicle  0 -9.442270133e-015 7.951389973e-016
rhumerus  -13.39140034 19.58069992 -74.61660004
rradius  -7.782816926e-012 0.001642658608 137.7649994
rwrist  0.002739921212 0.003270594636 3.164659739
rthumb  -92.93752616 -24.25625642 -97.11982154
rhand  -7.920061211e-032 -33.2840004 9.303460121
rfingers  -90 -7.125020027 -90
lclavicle  0 -9.442270133e-015 7.951389973e-016
lhumerus  -5.070389748 -17.45960045 77.561203
lradius  1.032090125e-011 0.005718162749 144.6340027
lwrist  1.816137865e-011 1.409039812e-011 2.99236989
lthumb  89.89689403 5.08795885 91.16245106
lhand  -1.496451383e-031 -27.76390076 20.11240005
lfingers  90 7.125020027 -90
lowerneck  1.248059988 7.314960003 -4.270249844
upperneck  18.65550041 8.351240158 10.08069992
head  4.719649792 4.296110153 4.101309776
305
root  13.1386449 37.96199889 -3.57733336 -2.728980064 -56.91220093 -6.734630108
lfemur  -23.92860031 0.8299230933 1.467609644
ltibia  -1.491570742e-006 -8.364404493e-007 58.81740189
lfoot  5.521815751e-007 -9.527819633 5.120109558
ltoes  -4.250644065 -19.5611806 -102.515957
rfemur  1.441121459 6.048531055 16.14979744
rtibia  -8.727266732e-007 2.533748784e-007 57.47919464
rfoot  -2.316020982e-006 -20.25189972 -9.066550255
rtoes  5.373923086 19.29304026 -105.8922705
lowerback  7.282899857 3.876459837 -1.479590058
upperback  2.1900599 4.939209938 -2.526050091
thorax  -1.709050059 2.446049929 -2.197340012
rclavicle  0 -9.442270133e-015 7.951389973e-016
rhumerus  -13.88560009 19.62529945 -75.38140106
rradius  -7.782816926e-012 0.001642658608 137.6600037
rwrist  0.002739921212 0.003270594636 3.277299643
rthumb  -92.93752616 -24.25625642 -97.11982154
rhand  -7.920061211e-032 -33.2840004 9.303460121
rfingers  -90 -7.125020027 -90
lclavicle  0 -9.442270133e-015 7.951389973e-016
lhumerus  -7.075589657 -17.27090073 78.16639709
lradius  1.032090038e-011 0.005718162749 145.0099945
lwrist  1.816137865e-011 1.409039812e-011 2.771430254
lthumb  89.89689403 5.08795885 91.16245106
lhand  -1.496451383e-031 -27.76390076 20.11240005
lfingers  90 7.125020027 -90
lowerneck  0.9494199753 7.304470062 -4.681789875
upperneck  18.29260063 8.389330864 10.13329983
head  4.632500172 4.301070213 4.182400227
306
root  13.16344494 37.79488811 -3.676599968 -2.132000208 -57.76620102 -6.728660107
lfemur  -25.34239578 1.591029882 2.002779484
ltibia  -1.491570742e-006 -8.364404493e-007 60.39109802
lfoot  5.521815751e-007 -8.363266945 4.272750378
ltoes  -4.250644065 -19.5611806 -102.515957
rfemur  1.888166308 6.399951458 16.54329872
rtibia  -8.727266732e-007 2.533748784e-007 55.89389038
rfoot  -2.316020982e-006 -24.8313961 -9.051519394
rtoes  5.373923086 19.29304026 -105.8922705
lowerback  7.26639986 4.035329819 -1.020009995
upperback  2.12477994 5.181419849 -2.62293005
thorax  -1.711210012 2.567709923 -2.572740078
rclavicle  0 -9.442270133e-015 7.951389973e-016
rhumerus  -13.76350021 19.19499969 -75.94319916
rradius  -7.782816926e-012 0.001642658608 137.4660034
rwrist  0.002739921212 0.003270594636 3.372680187
rthumb  -92.93752616 -24.25625642 -97.11982154
rhand  -7.920061211e-032 -33.2840004 9.303460121
rfingers  -90 -7.125020027 -90
lclavicle  0 -9.442270133e-015 7.951389973e-016
lhumerus  -8.471940041 -17.13290024 78.40529633
lradius  1.032090125e-011 0.005718162749 145.3269958
lwrist  1.816137865e-011 1.409039812e-011 2.852149963
lthumb  89.89689403 5.08795885 91.16245106
lhand  -1.496451383e-031 -27.76390076 20.11240005
lfingers  90 7.125020027 -90
lowerneck  0.5652520061 7.212329865 -5.281030178
upperneck  17.53910065 8.344348907 10.29570007
head  4.432089806 4.264550209 4.314489841
307
root  13.20373355 37.72088599 -3.766444349 -1.642689705 -58.55110168 -6.752810478
lfemur  -26.78790283 2.381659746 2.472643614
ltibia  -1.491570742e-006 -8.364404493e-007 62.10380554
lfoot  5.521815751e-007 -6.769352913 3.526980162
ltoes  -4.250644065 -19.5611806 -102.515957
rfemur  2.099948883 6.400519848 16.80680084
rtibia  -8.727266732e-007 2.533748784e-007 54.34260559
rfoot  -2.316020982e-006 -27.19860268 -10.6121006
rtoes  5.373923086 19.29304026 -105.8922705
lowerback  7.47536993 4.083620071 -0.5674151182
upperback  2.161550045 5.273519993 -2.637909889
thorax  -1.743139982 2.613549948 -2.860820055
rclavicle  0 -9.442270133e-015 7.951389973e-016
rhumerus  -13.23760033 18.99220085 -76.3015976
rradius  -7.782816926e-012 0.001642658608 137.1940002
rwrist  0.002739921212 0.003270594636 3.453760147
rthumb  -92.93752616 -24.25625642 -97.11982154
rhand  -7.920061211e-032 -33.2840004 9.303460121
rfingers  -90 -7.125020027 -90
lclavicle  0 -9.442270133e-015 7.951389973e-016
lhumerus  -9.863820076 -16.72809982 78.50859833
lradius  1.032090038e-011 0.005718162749 145.6719971
lwrist  1.816137865e-011 1.409039812e-011 3.109730005
lthumb  89.89689403 5.08795885 91.16245106
lhand  -1.496451383e-031 -27.76390076 20.11240005
lfingers  90 7.125020027 -90
lowerneck  -0.05137360096 7.205500126 -5.945690155
upperneck  16.99239922 8.442501068 10.30140018
head  4.329539776 4.292469978 4.429069996
308
root  13.28228928 37.61511074 -3.865266785 -1.046530128 -59.3423996 -6.967080116
lfemur  -28.47909737 3.163909435 3.052819967
ltibia  -1.491570742e-006 -8.364404493e-007 63.95039749
lfoot  5.521815751e-007 -4.600718021 2.816030264
ltoes  -4.250644065 -19.5611806 -102.515957
rfemur  2.293881893 6.434040546 17.06969833
rtibia  -8.727266732e-007 2.533748784e-007 52.96329498
rfoot  -2.316020982e-006 -28.90179634 -12.96740055
rtoes  5.373923086 19.29304026 -105.8922705
lowerback  7.994900227 4.090340137 -0.2019029409
upperback  2.14560008 5.300859928 -2.548680067
thorax  -2.02083993 2.623729944 -3.017110109
rclavicle  0 -9.442270133e-015 7.951389973e-016
rhumerus  -12.61919975 19.02359962 -76.60959625
rradius  -7.782816926e-012 0.001642658608 136.9980011
rwrist  0.002739921212 0.003270594636 3.195399761
rthumb  -92.93752616 -24.25625642 -97.11982154
rhand  -7.920061211e-032 -33.2840004 9.303460121
rfingers  -90 -7.125020027 -90
lclavicle  0 -9.442270133e-015 7.951389973e-016
lhumerus  -11.28279972 -15.9861002 78.47170258
lradius  1.032090038e-011 0.005718162749 145.9669952
lwrist  1.816137865e-011 1.409039812e-011 3.684989929
lthumb  89.89689403 5.08795885 91.16245106
lhand  -1.496451383e-031 -27.76390076 20.11240005
lfingers  90 7.125020027 -90
lowerneck  -0.7373390198 7.262300014 -6.311079979
upperneck  16.69630051 8.655100822 9.918460846
head  4.342130184 4.373250008 4.391699791
309
root  13.37633358 37.51244432 -3.95924463 -0.405785948 -60.25180054 -7.172339916
lfemur  -30.28629684 3.96468997 3.639275789
ltibia  -1.491570742e-006 -8.364404493e-007 65.73009491
lfoot  5.521815751e-007 -1.907195568 2.182050467
ltoes  -4.250644065 -19.5611806 -102.515957
rfemur  2.145186424 6.78657198 17.25649643
rtibia  -8.727266732e-007 2.533748784e-007 51.91798401
rfoot  -2.316020982e-006 -30.29669189 -15.08849812
rtoes  5.373923086 19.29304026 -105.8922705
lowerback  8.364689827 4.234549999 0.2879309952
upperback  2.259740114 5.524340153 -2.591969967
thorax  -2.044879913 2.733769894 -3.378060102
rclavicle  0 -9.442270133e-015 7.951389973e-016
rhumerus  -11.78520012 18.69680023 -76.80480194
rradius  -7.782816926e-012 0.001642658608 136.9140015
rwrist  0.002739921212 0.003270594636 2.879100084
rthumb  -92.93752616 -24.25625642 -97.11982154
rhand  -7.920061211e-032 -33.2840004 9.303460121
rfingers  -90 -7.125020027 -90
lclavicle  0 -9.442270133e-015 7.951389973e-016
lhumerus  -12.07680035 -15.42420006 78.11070251
lradius  1.032089865e-011 0.005718162749 146.1369934
lwrist  1.816137865e-011 1.409039812e-011 4.461949825
lthumb  89.89689403 5.08795885 91.16245106
lhand  -1.496451383e-031 -27.76390076 20.11240005
lfingers  90 7.125020027 -90
lowerneck  -1.301149964 7.220620155 -6.391550064
upperneck  16.06749916 8.749130249 9.394109726
head  4.264929771 4.403830051 4.247000217
